<svg xmlns="http://www.w3.org/2000/svg" width="25.275" height="23.5" viewBox="0 0 25.275 23.5">
  <g id="like" transform="translate(0 -1.826)">
    <path id="Path_201" data-name="Path 201" d="M25.234,8.834c-.369-4.061-3.243-7.007-6.84-7.007a6.8,6.8,0,0,0-5.825,3.356A6.553,6.553,0,0,0,6.882,1.826c-3.6,0-6.471,2.946-6.84,7.007A7.225,7.225,0,0,0,.257,11.5a11.422,11.422,0,0,0,3.5,5.839l8.806,7.991,8.957-7.99a11.423,11.423,0,0,0,3.5-5.84A7.241,7.241,0,0,0,25.234,8.834Zm-1.162,2.44a10.446,10.446,0,0,1-3.2,5.34l-8.3,7.406-8.158-7.4A10.453,10.453,0,0,1,1.2,11.273,6.313,6.313,0,0,1,1,8.988l.007-.049C1.325,5.381,3.795,2.8,6.882,2.8a5.7,5.7,0,0,1,5.236,3.653l.448,1.061.448-1.061A5.872,5.872,0,0,1,18.394,2.8c3.087,0,5.558,2.583,5.88,6.187A6.306,6.306,0,0,1,24.072,11.273Z" transform="translate(0)" fill="#dc2d2d"/>
    <path id="Path_202" data-name="Path 202" d="M10.86,7.9A4.866,4.866,0,0,0,6,12.765a.486.486,0,1,0,.972,0A3.893,3.893,0,0,1,10.86,8.876a.486.486,0,1,0,0-.972Z" transform="translate(-3.083 -3.124)" fill="#dc2d2d"/>
  </g>
</svg>
