<svg xmlns="http://www.w3.org/2000/svg" xmlns:xlink="http://www.w3.org/1999/xlink" width="66.867" height="49.927" viewBox="0 0 66.867 49.927">
  <defs>
    <filter id="Path_195" x="0" y="15.79" width="66.867" height="34.137" filterUnits="userSpaceOnUse">
      <feOffset dy="3" input="SourceAlpha"/>
      <feGaussianBlur stdDeviation="3" result="blur"/>
      <feFlood flood-opacity="0.161"/>
      <feComposite operator="in" in2="blur"/>
      <feComposite in="SourceGraphic"/>
    </filter>
  </defs>
  <g id="envelope" transform="translate(8.148)">
    <g id="Group_4" data-name="Group 4">
      <g id="Group_3" data-name="Group 3" transform="translate(0 0)">
        <path id="Path_192" data-name="Path 192" d="M7.286,67.077c6.94,5.878,19.119,16.219,22.7,19.443a2.114,2.114,0,0,0,3.059,0C36.626,83.3,48.8,72.955,55.745,67.077a1.053,1.053,0,0,0,.148-1.454A4.184,4.184,0,0,0,52.586,64H10.445a4.183,4.183,0,0,0-3.307,1.624A1.053,1.053,0,0,0,7.286,67.077Z" transform="translate(-6.231 -64)" fill="#6c63ff"/>
        <path id="Path_193" data-name="Path 193" d="M354.884,126.51a1.049,1.049,0,0,0-1.123.152c-4.545,3.853-10.534,8.944-15.051,12.829a1.053,1.053,0,0,0,.029,1.62c4.2,3.361,10.521,7.985,15.088,11.271a1.054,1.054,0,0,0,1.669-.855V127.466A1.053,1.053,0,0,0,354.884,126.51Z" transform="translate(-304.926 -120.247)" fill="#6c63ff"/>
        <path id="Path_194" data-name="Path 194" d="M1.669,152.39c4.568-3.286,10.893-7.91,15.089-11.271a1.053,1.053,0,0,0,.029-1.62C12.27,135.614,6.28,130.523,1.735,126.67a1.054,1.054,0,0,0-1.735.8v24.061a1.053,1.053,0,0,0,1.669.855Z" transform="translate(0 -120.256)" fill="#6c63ff"/>
        <g transform="matrix(1, 0, 0, 1, -8.15, 0)" filter="url(#Path_195)">
          <path id="Path_195-2" data-name="Path 195" d="M57.05,297.827c-4.411-3.155-12.535-9.038-17.385-12.975a1.056,1.056,0,0,0-1.356.024c-.952.83-1.748,1.53-2.313,2.038a4.266,4.266,0,0,1-5.881,0c-.563-.507-1.359-1.209-2.311-2.036a1.049,1.049,0,0,0-1.355-.024c-4.834,3.923-12.967,9.813-17.385,12.975a1.053,1.053,0,0,0-.158,1.574,4.221,4.221,0,0,0,3.08,1.352H54.127a4.227,4.227,0,0,0,3.081-1.352,1.053,1.053,0,0,0-.159-1.574Z" transform="translate(0.38 -262.83)" fill="#6c63ff"/>
        </g>
      </g>
    </g>
  </g>
</svg>
