<svg xmlns="http://www.w3.org/2000/svg" width="35.592" height="32" viewBox="0 0 35.592 32">
  <g id="react" transform="translate(-0.754 -0.785)">
    <path id="Path_203" data-name="Path 203" d="M.754,16.727c0,2.688,2.625,5.2,6.763,6.612-.826,4.16-.148,7.513,2.117,8.819,2.328,1.343,5.8.413,9.09-2.465,3.209,2.762,6.453,3.849,8.716,2.539,2.326-1.347,3.034-4.927,2.185-9.217,4.31-1.425,6.721-3.565,6.721-6.288,0-2.626-2.629-4.9-6.712-6.3.914-4.467.14-7.739-2.22-9.1C25.14.014,21.859,1.157,18.6,3.991,15.214.983,11.965.065,9.608,1.429,7.336,2.744,6.688,6.158,7.517,10.4,3.518,11.789.754,14.112.754,16.727Z" transform="translate(0 0)" fill="none"/>
    <path id="Path_204" data-name="Path 204" d="M41.232,23.63q-.5-.173-1.018-.321.085-.346.157-.694c.77-3.739.267-6.751-1.453-7.743-1.649-.951-4.346.041-7.069,2.411q-.4.351-.787.722-.257-.247-.524-.484c-2.854-2.535-5.716-3.6-7.434-2.608-1.647.954-2.135,3.785-1.442,7.329q.1.526.234,1.047c-.4.115-.8.238-1.17.368-3.346,1.167-5.484,3-5.484,4.892,0,1.959,2.294,3.924,5.78,5.115q.424.144.855.267-.14.561-.248,1.128c-.661,3.482-.145,6.246,1.5,7.194,1.7.979,4.545-.027,7.319-2.452q.329-.287.66-.608.416.4.854.78c2.686,2.312,5.34,3.245,6.981,2.295,1.7-.981,2.246-3.951,1.531-7.565q-.082-.414-.19-.845.3-.089.588-.184c3.624-1.2,5.981-3.141,5.981-5.127,0-1.9-2.206-3.744-5.62-4.92Z" transform="translate(-12.462 -11.809)" fill="#53c1de"/>
    <path id="Path_205" data-name="Path 205" d="M48.748,40.677c-.173.057-.35.112-.531.166a31.693,31.693,0,0,0-1.6-4,31.678,31.678,0,0,0,1.538-3.946c.323.094.637.192.94.3,2.925,1.007,4.709,2.5,4.709,3.643,0,1.222-1.927,2.808-5.056,3.845Zm-1.3,2.572a11.434,11.434,0,0,1,.152,4.172,2.79,2.79,0,0,1-1.035,1.962c-1,.577-3.127-.173-5.424-2.15q-.4-.34-.795-.725A31.731,31.731,0,0,0,43,43.145a31.522,31.522,0,0,0,4.281-.66q.1.39.171.765ZM34.321,49.284a2.79,2.79,0,0,1-2.217.083c-1-.575-1.411-2.795-.846-5.773q.1-.528.231-1.049a31.752,31.752,0,0,0,4.26.617,32.858,32.858,0,0,0,2.713,3.352q-.294.285-.6.555a11.436,11.436,0,0,1-3.538,2.215ZM29.761,40.67a11.439,11.439,0,0,1-3.687-1.958,2.791,2.791,0,0,1-1.18-1.879c0-1.151,1.716-2.619,4.578-3.617q.539-.187,1.088-.342A32.384,32.384,0,0,0,32.1,36.865a32.876,32.876,0,0,0-1.56,4.049Q30.149,40.8,29.761,40.67Zm1.528-10.4c-.594-3.036-.2-5.326.793-5.9,1.058-.612,3.4.261,5.86,2.449.158.14.316.286.474.438a32.359,32.359,0,0,0-2.693,3.332,32.995,32.995,0,0,0-4.218.656q-.121-.484-.217-.974Zm13.635,3.367q-.463-.8-.961-1.581c1.009.127,1.975.3,2.882.5a28.8,28.8,0,0,1-1.012,2.722q-.438-.831-.909-1.645Zm-5.56-5.416a28.877,28.877,0,0,1,1.86,2.245q-1.867-.088-3.736,0C38.1,29.652,38.732,28.9,39.364,28.217Zm-5.6,5.425q-.465.807-.892,1.635c-.393-.933-.73-1.85-1-2.735.9-.2,1.864-.367,2.866-.492Q34.234,32.834,33.768,33.642Zm1,8.069a28.752,28.752,0,0,1-2.913-.468c.279-.9.623-1.838,1.025-2.791q.429.828.9,1.636.477.823.992,1.623ZM39.4,45.543c-.64-.691-1.278-1.454-1.9-2.276q.908.036,1.849.036.966,0,1.908-.042A28.715,28.715,0,0,1,39.4,45.543ZM45.847,38.4a28.677,28.677,0,0,1,1.061,2.781,28.659,28.659,0,0,1-2.949.5q.5-.794.97-1.608t.917-1.675Zm-2.086,1q-.718,1.248-1.516,2.447c-.938.067-1.907.1-2.895.1s-1.94-.031-2.862-.09q-.818-1.2-1.545-2.45t-1.349-2.547q.624-1.3,1.344-2.548h0q.72-1.249,1.533-2.44c.94-.071,1.9-.108,2.878-.108s1.944.037,2.884.109q.8,1.189,1.523,2.432t1.363,2.536q-.633,1.3-1.358,2.559Zm2.786-15.079c1.058.61,1.47,3.072.805,6.3q-.065.315-.142.628a32.347,32.347,0,0,0-4.226-.668,31.721,31.721,0,0,0-2.672-3.335q.355-.342.727-.667c2.334-2.031,4.515-2.833,5.508-2.26Z" transform="translate(-20.764 -20.092)" fill="#fff"/>
    <path id="Path_206" data-name="Path 206" d="M110.867,94.665a2.823,2.823,0,1,1-2.823,2.823,2.823,2.823,0,0,1,2.823-2.823" transform="translate(-92.281 -80.748)" fill="#53c1de"/>
  </g>
</svg>
